/* XPM */
static char *_25fc3b8e9a7423fd22f9ad2f75681ad1FGQMETl8o7xpu5X[] = {
/* columns rows colors chars-per-pixel */
"16 16 2 1 ",
"  c #422835",
". c #523A42",
/* pixels */
"................",
".              .",
".              .",
".              .",
".              .",
".              .",
".              .",
".              .",
".              .",
".              .",
".              .",
".              .",
".              .",
".              .",
".              .",
"................"
};
